<?xml version="1.0" encoding="utf-8"?>
<!-- Generator: Adobe Illustrator 18.0.0, SVG Export Plug-In . SVG Version: 6.00 Build 0)  -->
<!DOCTYPE svg PUBLIC "-//W3C//DTD SVG 1.1//EN" "http://www.w3.org/Graphics/SVG/1.1/DTD/svg11.dtd">
<svg version="1.1" id="Layer_1" xmlns="http://www.w3.org/2000/svg" xmlns:xlink="http://www.w3.org/1999/xlink" x="0px" y="0px"
	 viewBox="0 0 729.2 210.1" enable-background="new 0 0 729.2 210.1" xml:space="preserve">
<g>
	<g>
		<g enable-background="new    ">
			<path fill="#2E49A2" d="M207.8,191.1L207.8,191.1c0,5.4-1.4,9.9-5.4,13.5c-3.6,3.6-8.6,5-14.9,5s-11.3-2.3-15.3-6.3
				s-5.9-9.5-5.9-16.3v-10.4c0-6.3,1.8-11.7,5.9-16.3c4.1-4.1,9-6.3,14.9-6.3c6.3,0,11.3,1.8,14.9,5c3.6,3.2,5.4,7.7,5.4,13.5l0,0
				h-8.6c0-3.6-0.9-6.3-3.2-8.6c-1.8-1.8-5-3.2-8.6-3.2c-3.6,0-6.3,1.4-8.6,4.5c-2.3,3.2-3.2,6.3-3.2,10.8v10.4
				c0,4.5,0.9,8.1,3.2,10.8c2.3,3.2,5,4.5,9,4.5c3.6,0,6.3-0.9,8.6-3.2c1.8-1.8,2.7-4.5,2.7-8.6L207.8,191.1L207.8,191.1z"/>
			<path fill="#2E49A2" d="M258.4,187.1c0,6.3-2.3,11.7-6.3,16.3c-4.1,4.5-9.5,6.3-15.8,6.3s-11.7-2.3-15.8-6.3
				c-4.1-4.5-5.9-9.9-5.9-16.3v-9.5c0-6.3,1.8-11.7,5.9-16.3c4.1-4.5,9.5-6.3,15.8-6.3s11.7,2.3,15.8,6.3c4.1,4.5,6.3,9.9,6.3,16.3
				V187.1z M249.3,177.2c0-4.5-1.4-8.1-3.6-10.8c-2.3-2.7-5.4-4.5-9.5-4.5c-4.1,0-7.2,1.4-9.5,4.5c-2.3,2.7-3.6,6.3-3.6,10.8v9.9
				c0,4.5,1.4,8.1,3.6,10.8c2.3,2.7,5.4,4.5,9.5,4.5c4.1,0,7.2-1.4,9.5-4.5c2.3-2.7,3.6-6.8,3.6-11.3V177.2L249.3,177.2z"/>
			<path fill="#2E49A2" d="M267.9,209.2v-53.7H285c6.8,0,12.2,2.3,16.7,6.3c4.1,4.1,6.3,9.5,6.3,16.3v8.1c0,6.8-2.3,12.2-6.3,16.3
				c-4.1,4.1-9.9,6.3-16.7,6.3h-17.2V209.2z M276.9,162.7V202h8.1c4.5,0,7.7-1.4,10.4-4.5s4.1-6.8,4.1-11.3v-8.1
				c0-4.5-1.4-8.1-4.1-11.3s-5.9-4.5-10.4-4.5L276.9,162.7L276.9,162.7z"/>
			<path fill="#2E49A2" d="M327,209.2h-9v-53.7h9V209.2z"/>
			<path fill="#2E49A2" d="M381.2,209.2h-9l-23.5-39.3l0,0v39.3h-9v-53.7h9l23.9,39.3l0,0v-39.3h9L381.2,209.2L381.2,209.2z"/>
			<path fill="#2E49A2" d="M433.1,202c-1.4,2.3-3.6,4.1-7.2,5.4c-3.2,1.4-7.2,2.3-12.6,2.3c-6.3,0-11.7-2.3-15.8-6.3
				c-4.1-4.1-6.3-9.5-6.3-15.8v-11.3c0-6.3,1.8-11.7,5.9-15.8c4.1-4.1,9-6.3,15.3-6.3s11.3,1.4,14.9,4.5s5.4,7.2,5.4,12.2l0,0H424
				c0-3.2-1.4-5.4-3.2-7.2c-1.8-1.8-4.5-2.7-8.1-2.7s-6.8,1.4-9,4.1c-2.3,2.7-3.2,6.3-3.2,10.4v11.3c0,4.5,1.4,7.7,3.6,10.8
				c2.3,2.7,5.4,4.1,9.5,4.1c2.7,0,5-0.5,6.8-0.9c1.8-0.9,3.2-1.4,4.1-2.3v-10.8h-10.8v-6.8h19.4L433.1,202L433.1,202z"/>
		</g>
		<g enable-background="new    ">
			<path d="M474.1,195.7c0-2.3-0.9-4.5-2.7-6.3c-1.8-1.4-5-3.2-9.9-4.1c-5.4-1.4-10.4-3.2-13.5-5.9c-3.2-2.7-4.5-5.9-4.5-9.9
				s1.8-7.7,5-10.4c3.6-2.7,7.7-4.1,13.5-4.1s10.4,1.4,14,5c3.6,3.2,5,7.2,5,11.3l0,0h-7.2c0-3.2-0.9-5.4-3.2-7.7s-5-3.2-9-3.2
				c-3.6,0-6.3,0.9-8.1,2.3c-1.8,1.4-3.2,3.6-3.2,6.3c0,2.3,0.9,4.1,3.2,5.9c2.3,1.4,5.4,3.2,10.4,4.1c5.4,1.4,9.9,3.6,13.1,6.3
				c3.2,2.7,4.5,6.3,4.5,10.4c0,4.5-1.8,7.7-5.4,10.4c-3.6,2.7-8.1,4.1-14,4.1c-5.4,0-10.4-1.4-14-4.5c-4.1-3.2-6.3-6.8-5.9-11.7
				l0,0h7.2c0,3.6,1.4,6.3,4.1,7.7c2.3,1.8,5.4,2.7,9.5,2.7c3.6,0,6.3-0.9,8.6-2.3C473.2,199.7,474.1,198.4,474.1,195.7z"/>
			<path d="M529.7,192.1L529.7,192.1c0,5.4-1.8,9.5-5.4,12.6s-8.6,5-14.4,5c-6.3,0-10.8-2.3-14.9-6.3c-4.1-4.5-5.9-9.9-5.9-16.3
				v-9.5c0-6.8,1.8-12.2,5.9-16.3c4.1-4.5,8.6-6.3,14.9-6.3s10.8,1.4,14.4,5c3.6,3.2,5.4,7.7,5.4,12.6l0,0h-7.2c0-3.6-0.9-6.8-3.2-9
				s-5.4-3.2-9.5-3.2c-4.1,0-7.2,1.4-9.5,5c-2.3,3.2-3.6,7.2-3.6,12.2v9.5c0,5,1.4,9,3.6,12.2s5.4,5,9.5,5c4.1,0,7.2-0.9,9.5-3.2
				c2.3-2.3,3.2-5.4,3.2-9L529.7,192.1L529.7,192.1z"/>
			<path d="M580.2,209.2H573v-23.9h-26.2v23.5h-7.2V155h7.2v24.4H573V155h7.2V209.2L580.2,209.2z"/>
			<path d="M633.9,187.1c0,6.3-2.3,11.7-6.3,16.3c-4.1,4.5-9.5,6.3-15.8,6.3s-11.3-2.3-15.3-6.3c-4.1-4.5-5.9-9.9-5.9-16.3v-9.5
				c0-6.3,1.8-11.7,5.9-16.3c4.1-4.5,9-6.3,15.3-6.3s11.7,2.3,15.8,6.3c4.1,4.5,6.3,9.9,6.3,16.3V187.1z M626.7,177.6
				c0-5-1.4-9-4.1-12.2s-6.3-4.5-10.8-4.5c-4.1,0-7.7,1.4-10.4,4.5c-2.3,3.2-4.1,7.2-4.1,12.2v9.5c0,5,1.4,9,4.1,12.2
				c2.3,3.2,5.9,4.5,10.4,4.5s8.1-1.4,10.8-4.5c2.7-3.2,4.1-7.2,4.1-12.2V177.6z"/>
			<path d="M685.9,187.1c0,6.3-2.3,11.7-6.3,16.3c-4.1,4.5-9.5,6.3-15.8,6.3c-6.3,0-11.3-2.3-15.3-6.3c-4.1-4.1-5.9-9.9-5.9-16.3
				v-9.5c0-6.3,1.8-11.7,5.9-16.3c4.1-4.5,9-6.3,15.3-6.3c6.3,0,11.7,2.3,15.8,6.3c4.1,4.1,6.3,9.9,6.3,16.3V187.1z M678.2,177.6
				c0-5-1.4-9-4.1-12.2c-2.7-3.2-6.3-4.5-10.8-4.5c-4.1,0-7.7,1.4-10.4,4.5c-2.3,3.2-4.1,7.2-4.1,12.2v9.5c0,5,1.4,9,4.1,12.2
				c2.3,3.2,5.9,4.5,10.4,4.5s8.1-1.4,10.8-4.5c2.7-3.2,4.1-7.2,4.1-12.2V177.6z"/>
			<path d="M703.9,203.3h25.3v5.9h-32.5v-53.7h7.2L703.9,203.3L703.9,203.3z"/>
		</g>
		<path d="M285.9,80.1c-1.4,0.5-3.2,1.4-4.5,1.8c-2.3,0.9-4.5,1.4-7.2,1.4c-3.6,0-6.8-0.9-9.5-2.7c-4.5-3.2-7.7-7.2-9-12.6
			c-0.5-2.3-0.9-5-0.9-7.7c0-5,0-9.9,0-14.9c0-6.8,0-13.5,0-20.3s0.5-13.5,0.5-20.3c0-0.5,0-1.4,0-1.8c0-0.9,0.5-1.4,1.4-1.8
			c0.9-0.5,1.8-0.5,2.3-0.9c2.3-0.5,4.1,0,6.3,0c0.5,0,0.9,0,1.4,0.5c0.9,0.5,1.8,1.4,1.4,2.7c-0.5,5.4-0.5,10.8-0.9,16.3
			c-0.5,11.7-0.5,23.9-0.9,35.7c0,3.2,0,6.8,0.5,9.5c0,0.9,0.5,1.8,0.9,3.2c0.5,0.9,0.9,1.8,1.8,2.3c1.8,0.9,3.6,1.4,5.4,1.4
			c1.4,0,2.3-0.5,3.2-1.4v-0.5c-1.8-3.6-3.2-7.7-3.6-11.7c-0.5-2.3-0.5-5-0.5-7.2c0-4.1,0-8.6,0-12.6c0-5.4,0.9-11.3,2.3-16.7
			c1.4-4.1,3.2-7.7,6.3-10.8c3.6-3.6,7.7-5.9,12.6-7.2c5.4-1.4,11.3-1.8,17.2-1.4c3.6,0,7.2,0.9,10.8,2.3c7.2,2.7,11.7,7.7,14.9,14
			c2.3,4.1,3.2,8.6,4.1,13.1c0.9,5.9,1.4,11.7,1.4,18.1c0,3.6-0.9,7.2-2.3,10.8c-2.3,5.4-5,10.4-8.1,14.9c-2.7,4.1-5.4,7.7-8.6,11.7
			c-0.5,0.5-0.9,1.4-1.4,1.8c-0.5,0.9-0.5,1.4,0.5,2.3c0.5,0.5,1.4,0.9,1.8,1.4c2.3,0.9,4.5,1.4,7.2,2.3c5,0.9,9.5,2.3,14.4,3.2
			c3.2,0.5,5.9,1.4,8.6,3.2c5.4,3.2,9.5,7.2,10.4,13.5c0,1.4,0.5,2.3,0.5,3.6c0,4.1,0,8.6,0,12.6c0,0,0,0,0,0.5
			c-1.4,0.5-3.2,0.9-4.5,1.4c-7.7,2.3-15.3,4.1-23.5,5.4c-5.4,0.9-11.3,1.8-16.7,2.3c-9,0.9-18.1,0.9-26.6,0.5
			c-10.8-0.5-21.2-2.3-32.1-5c-5-1.4-9.5-2.7-14-4.1c-0.5,0-0.5-0.5-0.5-0.5c-1.4-4.5-2.3-9-1.8-13.5c0.5-5,1.8-9,5.4-12.6
			c1.8-1.4,3.6-2.7,5.9-3.6c7.2-2.7,14-5,21.2-6.8c3.2-0.9,6.8-1.8,9.9-3.2c0.9,0,1.4-0.9,2.3-1.4c0.9-0.5,0.9-1.4,0.5-2.3
			s-1.4-1.4-1.8-2.3C290,84.6,288.2,82.4,285.9,80.1L285.9,80.1 M309.4,57.1c5,0,9.9,0,14.9,0c5.9,0,10.4-4.5,10.4-10.4
			c0-2.3,0-4.5,0-6.8c0-5.4-4.5-10.4-10.4-10.4c-9.9,0-20.3,0-30.2,0c-5.4,0-10.4,4.5-10.4,10.4c0,2.3,0,4.5,0,6.8
			c0,0.9,0,1.4,0,2.3c1.4,5,5.4,7.7,9.9,7.7C299.9,57.1,304.4,57.1,309.4,57.1"/>
	</g>
	<g>
		<g>
			<g>
				<g>
					<defs>
						<path id="SVGID_1_" d="M320.7,38.1c-3.6,0-7.7,1.4-10.4,1.4c-4.5,0-6.8-1.4-9.9-1.4c-3.6,0-9.5,0-11.7,0.9c0,0,0,3.6,0,6.8
							c0,0,1.4,0.5,1.4,1.8c0.5,1.4,0.5,5.4,6.8,5.4s9.9,0,10.8-7.2c0,0,0.5-2.7,2.3-2.3c1.8,0,2.3,2.3,2.3,2.3
							c1.4,7.2,5,7.2,11.3,7.2c5.9,0,6.8-4.1,7.2-5.4c0.5-1.4,1.4-1.8,1.4-1.8c0-3.6,0-6.8,0-6.8c-1.8-0.5-5.9-0.9-9.5-0.9
							C322,38.1,321.6,38.1,320.7,38.1"/>
					</defs>
					<clipPath id="SVGID_2_">
						<use xlink:href="#SVGID_1_"  overflow="visible"/>
					</clipPath>
					
						<radialGradient id="SVGID_3_" cx="-53.2815" cy="768.4171" r="0.9983" gradientTransform="matrix(-21.2418 0 0 -16.0135 -821.7381 12349.1289)" gradientUnits="userSpaceOnUse">
						<stop  offset="0" style="stop-color:#282928"/>
						<stop  offset="1" style="stop-color:#010101"/>
					</radialGradient>
					<rect x="288.2" y="37.7" clip-path="url(#SVGID_2_)" fill="url(#SVGID_3_)" width="43.8" height="14.9"/>
				</g>
			</g>
		</g>
	</g>
	<g>
		<path fill="#FFFFFF" d="M290.9,45.8c0-1.4-0.9-5.4,3.2-5.9c4.1,0,8.6,0.5,9.9,0.9c1.4,0.5,3.2,0.9,2.3,5c-0.9,3.6-2.3,5.4-5.9,5.9
			C296.7,51.7,292.2,52.1,290.9,45.8"/>
	</g>
	<g>
		<g>
			<g>
				<g>
					<defs>
						<path id="SVGID_4_" d="M296.7,51.2c-0.9,0-1.8-0.5-2.7-0.9c-0.9-0.5-1.4-1.4-1.8-1.8c-0.5-0.9-0.9-1.8-0.9-2.7
							c0-0.9,0-1.8,0-3.2c0-0.5,0-0.9,0.5-1.4c0-0.5,0.5-0.9,0.9-0.9c0.5,0,0.9-0.5,1.4-0.5c0.5,0,0.9,0,1.4,0c0.9,0,1.8,0,3.2,0
							c0.9,0,1.8,0,3.2,0c0.9,0,1.8,0,3.2,0.5c0.5,0,0.9,0,1.4,0.5s0.9,0.5,1.4,0.9c0.5,0.5,0.5,0.9,0.5,1.4c0,0.5,0,0.9,0,1.4
							s0,0.9,0,1.4c0,0.5,0,0.9-0.5,1.4c-0.5,0.9-0.9,1.8-1.4,2.3c-0.5,0.5-0.5,0.5-0.9,0.9c-0.5,0-0.9,0.5-1.4,0.5
							c-0.5,0-0.9,0-1.4,0s-0.9,0-1.4,0s-0.9,0-1.4,0C297.6,51.2,296.7,51.2,296.7,51.2 M294.9,39.9c0,0-0.5,0-0.9,0
							c0,0-0.5,0-0.9,0s-0.9,0-1.4,0.5c-0.5,0-0.9,0.5-0.9,1.4c0,0.5-0.5,0.9-0.5,1.4c0,0.9,0,1.8,0,3.2c0,0.9,0.5,1.8,0.9,2.7
							s1.4,1.4,1.8,2.3c0.5,0.9,1.8,0.9,2.7,0.9c0.9,0,1.8,0,3.2,0c0.5,0,0.9,0,1.4,0s0.9,0,1.4,0c0.5,0,0.9-0.5,1.4-0.5
							c0.5,0,0.9-0.5,1.4-0.9c0.5-0.9,0.9-1.8,1.4-2.3c0-0.5,0-0.9,0.5-1.4c0-0.5,0-0.9,0-1.4c0-0.5,0-0.9,0-1.4s0-0.9-0.5-1.4
							c-0.5-0.5-0.9-0.5-1.4-0.9c-0.5,0-0.9,0-1.4-0.5c-1.8-0.5-4.1-0.5-5.4-0.5c-0.5,0-1.4,0-1.8,0
							C295.8,39.9,295.4,39.9,294.9,39.9"/>
					</defs>
					<clipPath id="SVGID_5_">
						<use xlink:href="#SVGID_4_"  overflow="visible"/>
					</clipPath>
					
						<linearGradient id="SVGID_6_" gradientUnits="userSpaceOnUse" x1="-62.5187" y1="758.4497" x2="-61.5185" y2="758.4497" gradientTransform="matrix(13.9402 10.9762 -10.9762 13.9402 9486.9395 -9847.5537)">
						<stop  offset="0" style="stop-color:#333333"/>
						<stop  offset="1" style="stop-color:#1F1515"/>
					</linearGradient>
					<polygon clip-path="url(#SVGID_5_)" fill="url(#SVGID_6_)" points="296.7,32.3 312.5,44 300.4,59.3 285,47.1 					"/>
				</g>
			</g>
		</g>
	</g>
	<g>
		<path fill="#FFFFFF" d="M315.2,40.8c3.2-0.9,9-0.9,10.8-0.9c1.8,0,3.6,0,3.2,5.4c-0.5,5-4.1,5.4-6.8,5.9c-2.7,0.5-8.6,0-9-5.4
			C313,41.7,314.8,40.8,315.2,40.8"/>
	</g>
	<g>
		<g>
			<g>
				<g>
					<defs>
						<path id="SVGID_7_" d="M319.8,51.2c-0.9,0-1.8-0.5-2.7-0.9c-0.9-0.5-1.4-0.9-2.3-1.8c-0.5-0.9-0.9-1.8-0.9-2.7
							c0-0.9,0-1.8,0-3.2c0-0.5,0-0.9,0.5-1.4c0-0.5,0.5-0.9,1.4-0.9c1.8-0.5,4.1-0.5,5.9-0.9c0.9,0,1.8,0,3.2,0c0.5,0,0.9,0,1.4,0
							c0,0,0.5,0,0.9,0c0,0,0.5,0,0.9,0c0.5,0,0.9,0,1.4,0.5c0,0,0.5,0,0.5,0.5c0,0,0,0.5,0.5,0.5c0,0.5,0,0.9,0.5,1.4
							c0,0.5,0,0.9,0,1.4c0,0.9,0,1.8-0.5,3.2c0,0.9-0.9,1.8-1.4,2.3c-0.9,0.5-1.4,1.4-2.3,1.4c-0.9,0-1.8,0.5-3.2,0.5
							c0,0-0.5,0-0.9,0C321.1,51.2,320.2,51.2,319.8,51.2 M324.3,39.9c-0.9,0-1.8,0-3.2,0c-0.9,0-1.8,0-3.2,0.5
							c-0.9,0-1.8,0-3.2,0.5c-0.5,0-0.9,0.5-1.4,0.9c0,0.5-0.5,0.9-0.5,1.4c0,0.9,0,1.8,0,3.2c0,0.9,0.5,1.8,0.9,2.7
							c0.5,0.9,1.4,1.4,2.3,1.8c0.9,0.5,1.8,0.9,3.2,0.9c0.9,0,1.8,0,3.2,0s1.8,0,3.2-0.5c0.9,0,1.8-0.9,2.3-1.4
							c0.9-0.5,1.4-1.4,1.4-2.3s0.5-1.8,0.5-3.2c0-0.5,0-0.9,0-1.4s0-0.9-0.5-1.4c0,0,0-0.5-0.5-0.5l-0.5-0.5c-0.5,0-0.9,0-1.4-0.5
							c0,0-0.5,0-0.9,0c0,0-0.5,0-0.9,0C325.2,39.9,324.7,39.9,324.3,39.9L324.3,39.9"/>
					</defs>
					<clipPath id="SVGID_8_">
						<use xlink:href="#SVGID_7_"  overflow="visible"/>
					</clipPath>
					
						<linearGradient id="SVGID_9_" gradientUnits="userSpaceOnUse" x1="-56.6337" y1="768.4143" x2="-55.6337" y2="768.4143" gradientTransform="matrix(-15.1477 9.3299 -9.3299 -15.1477 6642.4346 12207.8779)">
						<stop  offset="0" style="stop-color:#333333"/>
						<stop  offset="1" style="stop-color:#1F1515"/>
					</linearGradient>
					<polygon clip-path="url(#SVGID_8_)" fill="url(#SVGID_9_)" points="335.1,48.5 318,58.9 308,43.1 325.2,32.3 					"/>
				</g>
			</g>
		</g>
	</g>
	<g>
		<g>
			<path d="M4.4,184.9v24.4H0v-54h18.3c5.8,0,10.2,1.3,13.3,3.8s4.6,6.2,4.6,11.1c0,2.9-0.8,5.4-2.5,7.7c-1.7,2.3-4,3.9-7,5
				c3.3,0.8,5.7,2.3,7.2,4.5c1.5,2.2,2.2,4.9,2.2,8.1v5.1c0,1.7,0.2,3.2,0.6,4.5c0.4,1.3,1.1,2.4,2,3.3v0.9h-4.5
				c-0.9-0.9-1.6-2.1-1.9-3.7c-0.4-1.6-0.6-3.3-0.6-5v-4.9c0-3.3-1.1-5.9-3.2-7.9c-2.1-1.9-5.1-2.9-9-2.9H4.4z M4.4,181.2h13.3
				c4.9,0,8.4-1,10.7-3c2.3-2,3.4-4.6,3.4-8c0-3.6-1.1-6.3-3.4-8.2c-2.2-1.9-5.6-2.9-10.2-2.9H4.4V181.2z"/>
			<path d="M55.6,209.4h-4.5v-54h4.5V209.4z"/>
			<path d="M109.3,202.9c-1.2,1.8-3.4,3.4-6.6,4.9c-3.2,1.5-7.2,2.3-12.1,2.3c-6.3,0-11.4-2.1-15.5-6.4c-4-4.3-6-9.8-6-16.6v-9.9
				c0-6.7,1.9-12.1,5.7-16.3c3.8-4.2,8.8-6.3,14.9-6.3c5.8,0,10.4,1.5,13.6,4.4c3.3,2.9,5.2,6.7,5.7,11.3l-0.1,0.2h-4.1
				c-0.6-3.6-2.2-6.5-4.6-8.8c-2.4-2.2-5.9-3.4-10.6-3.4c-4.8,0-8.8,1.8-11.7,5.3s-4.4,8-4.4,13.5v10c0,5.6,1.6,10.3,4.7,13.9
				s7.2,5.4,12.3,5.4c3.6,0,6.6-0.5,9.1-1.5c2.5-1,4.2-2.1,5.1-3.3v-14.1H90.5v-3.8h18.8V202.9z"/>
			<path d="M151.7,194.3H127l-5.6,15.1h-4.6l20.5-54h4.2l20.4,54h-4.6L151.7,194.3z M128.5,190.3h21.8l-10.8-29.2h-0.2L128.5,190.3z
				"/>
		</g>
	</g>
</g>
</svg>
