<svg width="96" height="96" viewBox="0 0 96 96" fill="none" xmlns="http://www.w3.org/2000/svg">
<path fill-rule="evenodd" clip-rule="evenodd" d="M10.5131 29.8018C10.6226 28.9806 11.3771 28.4037 12.1982 28.5132L19.6982 29.5132C20.0587 29.5612 20.3894 29.7386 20.6289 30.0122L34.6289 46.0122C35.1744 46.6357 35.1112 47.5833 34.4877 48.1289C33.8643 48.6744 32.9166 48.6112 32.3711 47.9878L18.7426 32.4123L11.8017 31.4868C10.9806 31.3774 10.4037 30.6229 10.5131 29.8018Z" fill="#B05F31"/>
<path fill-rule="evenodd" clip-rule="evenodd" d="M20.6047 20.5055C21.154 20.5633 21.5523 21.0554 21.4945 21.6047L20.4945 31.1047C20.4367 31.6539 19.9446 32.0523 19.3953 31.9945C18.8461 31.9367 18.4477 31.4446 18.5055 30.8953L19.5055 21.3953C19.5633 20.8461 20.0555 20.4477 20.6047 20.5055Z" fill="#B05F31"/>
<path d="M73.1571 71.3233C72.7803 84.92 61.3967 89.6261 47.5259 89.2417C33.6551 88.8573 22.5496 83.528 22.9264 69.9313C23.3032 56.3346 34.8532 45.6239 48.724 46.0083C62.5948 46.3927 73.5339 57.7266 73.1571 71.3233Z" fill="#D0F0F2"/>
<path fill-rule="evenodd" clip-rule="evenodd" d="M66.4448 87.2319C61.3511 90.3453 54.5932 91.4383 47.4705 91.2409C40.3477 91.0435 33.6607 89.5779 28.7473 86.1872C23.7092 82.7104 20.7206 77.329 20.9271 69.8759C21.3356 55.1376 33.8422 43.5951 48.7794 44.009C63.7166 44.423 75.5647 56.6404 75.1563 71.3787C74.9498 78.8318 71.6677 84.0395 66.4448 87.2319ZM47.5259 89.2417C61.3967 89.6261 72.7803 84.92 73.1571 71.3233C73.5339 57.7266 62.5948 46.3927 48.724 46.0083C34.8532 45.6239 23.3032 56.3346 22.9264 69.9313C22.5496 83.528 33.655 88.8573 47.5259 89.2417Z" fill="#5290BD"/>
<path fill-rule="evenodd" clip-rule="evenodd" d="M32.7644 56.131C33.4859 56.9674 33.3928 58.2303 32.5565 58.9518C31.4078 59.9429 30.3238 61.9023 29.7597 64.5157C29.2054 67.0837 29.2082 70.0492 29.9885 72.8357C30.2863 73.8994 29.6655 75.0031 28.6018 75.3009C27.5381 75.5988 26.4344 74.9779 26.1366 73.9143C25.1668 70.4508 25.1697 66.8226 25.8497 63.6718C26.52 60.5665 27.9048 57.6821 29.9436 55.9232C30.7799 55.2016 32.0428 55.2947 32.7644 56.131Z" fill="#DFFDFF"/>
<path fill-rule="evenodd" clip-rule="evenodd" d="M44.9663 89.1114C56.2594 88.1996 64.831 83.0916 65.1571 71.3234C65.5036 58.82 56.2809 48.2301 44.0089 46.3089C45.5403 46.0682 47.1166 45.9638 48.724 46.0083C62.5949 46.3927 73.5339 57.7266 73.1571 71.3234C72.7803 84.9201 61.3968 89.6261 47.5259 89.2417C46.6613 89.2178 45.8073 89.1746 44.9663 89.1114Z" fill="#A6E1E5"/>
<path d="M66.1292 67.7669C66.1292 68.3583 65.6497 68.8378 65.0583 68.8378C64.4668 68.8378 63.9874 68.3583 63.9874 67.7669C63.9874 67.1754 64.4668 66.6959 65.0583 66.6959C65.6497 66.6959 66.1292 67.1754 66.1292 67.7669Z" fill="#81CFD2"/>
<path d="M70.4664 70.2835C70.4664 71.0819 69.8191 71.7292 69.0207 71.7292C68.2222 71.7292 67.575 71.0819 67.575 70.2835C67.575 69.485 68.2222 68.8378 69.0207 68.8378C69.8191 68.8378 70.4664 69.485 70.4664 70.2835Z" fill="#81CFD2"/>
<path d="M69.7435 65.5849C69.7435 66.1837 69.2581 66.6692 68.6592 66.6692C68.0604 66.6692 67.575 66.1837 67.575 65.5849C67.575 64.9861 68.0604 64.5006 68.6592 64.5006C69.2581 64.5006 69.7435 64.9861 69.7435 65.5849Z" fill="#81CFD2"/>
<path d="M70.625 76.4947C70.625 77.7368 69.6181 78.7436 68.3761 78.7436C67.1341 78.7436 66.1272 77.7368 66.1272 76.4947C66.1272 75.2527 67.1341 74.2458 68.3761 74.2458C69.6181 74.2458 70.625 75.2527 70.625 76.4947Z" fill="#81CFD2"/>
<path d="M66.1292 72.4521C66.1292 73.2505 65.482 73.8978 64.6835 73.8978C63.8851 73.8978 63.2378 73.2505 63.2378 72.4521C63.2378 71.6536 63.8851 71.0064 64.6835 71.0064C65.482 71.0064 66.1292 71.6536 66.1292 72.4521Z" fill="#81CFD2"/>
<path d="M66.8123 81.1799C66.8123 81.6643 66.4196 82.0569 65.9353 82.0569C65.4509 82.0569 65.0583 81.6643 65.0583 81.1799C65.0583 80.6956 65.4509 80.3029 65.9353 80.3029C66.4196 80.3029 66.8123 80.6956 66.8123 81.1799Z" fill="#81CFD2"/>
<path d="M63.7712 83.9375C63.7712 84.736 63.1239 85.3833 62.3255 85.3833C61.527 85.3833 60.8798 84.736 60.8798 83.9375C60.8798 83.1391 61.527 82.4918 62.3255 82.4918C63.1239 82.4918 63.7712 83.1391 63.7712 83.9375Z" fill="#81CFD2"/>
<path d="M63.9874 79.0114C63.9874 79.8098 63.3401 80.4571 62.5417 80.4571C61.7432 80.4571 61.0959 79.8098 61.0959 79.0114C61.0959 78.2129 61.7432 77.5657 62.5417 77.5657C63.3401 77.5657 63.9874 78.2129 63.9874 79.0114Z" fill="#81CFD2"/>
<path d="M58.6864 85.9054C58.6864 86.5042 58.201 86.9896 57.6021 86.9896C57.0033 86.9896 56.5178 86.5042 56.5178 85.9054C56.5178 85.3065 57.0033 84.8211 57.6021 84.8211C58.201 84.8211 58.6864 85.3065 58.6864 85.9054Z" fill="#81CFD2"/>
<path d="M67 44.6875C67 52.7682 59.8218 58.375 48.5 58.375C37.1782 58.375 30 52.7682 30 44.6875C30 36.6068 37.1782 31 48.5 31C59.8218 31 67 36.6068 67 44.6875Z" fill="#D0F0F2"/>
<path fill-rule="evenodd" clip-rule="evenodd" d="M63.1971 56.1605C59.5525 58.899 54.4689 60.375 48.5 60.375C42.5311 60.375 37.4475 58.899 33.8029 56.1605C30.1132 53.388 28 49.3848 28 44.6875C28 39.9902 30.1132 35.987 33.8029 33.2145C37.4475 30.476 42.5311 29 48.5 29C54.4689 29 59.5525 30.476 63.1971 33.2145C66.8868 35.987 69 39.9902 69 44.6875C69 49.3848 66.8868 53.388 63.1971 56.1605ZM48.5 58.375C59.8218 58.375 67 52.7682 67 44.6875C67 36.6068 59.8218 31 48.5 31C37.1782 31 30 36.6068 30 44.6875C30 52.7682 37.1782 58.375 48.5 58.375Z" fill="#5290BD"/>
<path fill-rule="evenodd" clip-rule="evenodd" d="M40.798 35.4326C41.1114 36.4918 40.5068 37.6045 39.4476 37.9178C37.2883 38.5566 35.2086 41.8012 36.3974 45.3675C36.7467 46.4154 36.1804 47.5481 35.1325 47.8974C34.0846 48.2467 32.952 47.6803 32.6027 46.6325C30.7914 41.1988 33.7118 35.4434 38.3128 34.0822C39.372 33.7688 40.4847 34.3734 40.798 35.4326Z" fill="#DFFDFF"/>
<path fill-rule="evenodd" clip-rule="evenodd" d="M44.5 58.1243C53.4856 56.9522 59 51.7701 59 44.6875C59 37.6049 53.4856 32.4228 44.5 31.2507C45.7663 31.0855 47.1015 31 48.5 31C59.8218 31 67 36.6068 67 44.6875C67 52.7682 59.8218 58.375 48.5 58.375C47.1015 58.375 45.7663 58.2895 44.5 58.1243Z" fill="#A5E1E4"/>
<path d="M61.3125 21.3437C61.3125 29.2953 56.3411 34.8125 48.5 34.8125C40.6589 34.8125 35.6875 29.2953 35.6875 21.3437C35.6875 13.3922 40.6589 7.875 48.5 7.875C56.3411 7.875 61.3125 13.3922 61.3125 21.3437Z" fill="#D0F0F2"/>
<path fill-rule="evenodd" clip-rule="evenodd" d="M59.3063 32.4272C56.6648 35.2473 52.9116 36.8125 48.5 36.8125C44.0884 36.8125 40.3352 35.2473 37.6937 32.4272C35.0653 29.6212 33.6875 25.7353 33.6875 21.3437C33.6875 16.9522 35.0653 13.0663 37.6937 10.2603C40.3352 7.44015 44.0884 5.875 48.5 5.875C52.9116 5.875 56.6648 7.44015 59.3063 10.2603C61.9347 13.0663 63.3125 16.9522 63.3125 21.3437C63.3125 25.7353 61.9347 29.6212 59.3063 32.4272ZM48.5 34.8125C56.3411 34.8125 61.3125 29.2953 61.3125 21.3437C61.3125 13.3922 56.3411 7.875 48.5 7.875C40.6589 7.875 35.6875 13.3922 35.6875 21.3437C35.6875 29.2953 40.6589 34.8125 48.5 34.8125Z" fill="#5290BD"/>
<path fill-rule="evenodd" clip-rule="evenodd" d="M44.5 33.7386C52.3412 33.7386 57.3125 28.2215 57.3125 20.2699C57.3125 14.4856 54.6819 9.98958 50.2295 7.96836C57.0649 8.72371 61.3125 13.9937 61.3125 21.3437C61.3125 29.2953 56.3412 34.8125 48.5 34.8125C46.3628 34.8125 44.4388 34.4026 42.7705 33.6452C43.33 33.7071 43.9068 33.7386 44.5 33.7386Z" fill="#A5E1E4"/>
<path d="M53.5167 17.1678C53.9105 18.7261 52.9887 20.3029 51.4579 20.6899C49.927 21.0768 48.3667 20.1272 47.9729 18.569C47.579 17.0108 48.5008 15.4339 50.0317 15.047C51.5625 14.6601 53.1228 15.6096 53.5167 17.1678Z" fill="#074894"/>
<path fill-rule="evenodd" clip-rule="evenodd" d="M55.4557 16.6778C56.1119 19.2744 54.5819 21.9631 51.9479 22.6289C49.3139 23.2946 46.6901 21.6557 46.0338 19.0591C45.3775 16.4625 46.9075 13.7737 49.5415 13.108C52.1755 12.4422 54.7994 14.0812 55.4557 16.6778ZM51.4578 20.6899C52.9887 20.3029 53.9105 18.7261 53.5166 17.1678C53.1228 15.6096 51.5625 14.6601 50.0316 15.047C48.5008 15.4339 47.579 17.0108 47.9728 18.569C48.3667 20.1272 49.927 21.0768 51.4578 20.6899Z" fill="#F7FFFF"/>
<path d="M45.2801 17.6642C45.0666 18.8396 43.994 19.629 42.8843 19.4275C41.7746 19.2259 41.0481 18.1097 41.2616 16.9344C41.475 15.7591 42.5477 14.9697 43.6573 15.1712C44.767 15.3727 45.4936 16.4889 45.2801 17.6642Z" fill="#074894"/>
<path fill-rule="evenodd" clip-rule="evenodd" d="M47.2479 18.0216C46.8567 20.1757 44.8284 21.8133 42.5269 21.3953C40.2254 20.9773 38.9025 18.7311 39.2938 16.577C39.685 14.423 41.7132 12.7854 44.0147 13.2034C46.3162 13.6214 47.6391 15.8676 47.2479 18.0216ZM42.8843 19.4275C43.994 19.629 45.0666 18.8396 45.2801 17.6642C45.4936 16.4889 44.767 15.3727 43.6573 15.1712C42.5477 14.9697 41.475 15.7591 41.2616 16.9344C41.0481 18.1097 41.7746 19.2259 42.8843 19.4275Z" fill="#F7FFFF"/>
<path fill-rule="evenodd" clip-rule="evenodd" d="M79.8288 25.0272C80.9183 25.2088 81.6543 26.2393 81.4728 27.3288L79.9728 36.3288C79.8861 36.8484 79.598 37.3129 79.1709 37.6214L61.1709 50.6214C60.2755 51.2681 59.0253 51.0664 58.3786 50.171C57.7319 49.2755 57.9335 48.0254 58.829 47.3786L76.1624 34.8601L77.5272 26.6712C77.7088 25.5817 78.7392 24.8456 79.8288 25.0272Z" fill="#8E4323"/>
<path fill-rule="evenodd" clip-rule="evenodd" d="M76.5 37C76.5 36.1716 77.1716 35.5 78 35.5H87C87.8284 35.5 88.5 36.1716 88.5 37C88.5 37.8284 87.8284 38.5 87 38.5H78C77.1716 38.5 76.5 37.8284 76.5 37Z" fill="#8E4323"/>
<path fill-rule="evenodd" clip-rule="evenodd" d="M78.8331 27.8833C79.1047 27.9333 79.2843 28.194 79.2343 28.4656L77.9218 35.5906C77.8988 35.7152 77.8294 35.8264 77.7276 35.9018L67.8526 43.2143C67.6307 43.3787 67.3175 43.332 67.1532 43.1101C66.9889 42.8881 67.0356 42.575 67.2575 42.4107L76.974 35.2155L78.2508 28.2844C78.3008 28.0128 78.5615 27.8332 78.8331 27.8833Z" fill="#C15B30"/>
<path d="M42.9505 42.7747C42.4629 44.3943 40.9155 45.3604 39.4943 44.9325C38.073 44.5047 37.3161 42.8449 37.8036 41.2254C38.2912 39.6058 39.8386 38.6397 41.2598 39.0675C42.6811 39.4954 43.438 41.1551 42.9505 42.7747Z" fill="#08DDAA"/>
<path fill-rule="evenodd" clip-rule="evenodd" d="M44.8655 43.3512C44.1327 45.7858 41.624 47.6623 38.9177 46.8477C36.2114 46.033 35.1556 43.0834 35.8885 40.6488C36.6214 38.2142 39.13 36.3377 41.8363 37.1524C44.5426 37.9671 45.5984 40.9166 44.8655 43.3512ZM39.4942 44.9325C40.9155 45.3604 42.4629 44.3943 42.9504 42.7747C43.438 41.1551 42.6811 39.4954 41.2598 39.0675C39.8385 38.6397 38.2911 39.6058 37.8036 41.2254C37.316 42.8449 38.073 44.5047 39.4942 44.9325Z" fill="#EEFEFF"/>
<path d="M38.3292 64.6504C38.2349 66.3392 36.957 67.6411 35.4751 67.5583C33.9931 67.4755 32.8682 66.0394 32.9625 64.3507C33.0568 62.662 34.3347 61.3601 35.8166 61.4428C37.2986 61.5256 38.4235 62.9617 38.3292 64.6504Z" fill="#08DDAA"/>
<path fill-rule="evenodd" clip-rule="evenodd" d="M40.3261 64.7619C40.1843 67.3005 38.1854 69.7128 35.3636 69.5552C32.5417 69.3976 30.8239 66.7777 30.9656 64.2392C31.1074 61.7006 33.1063 59.2883 35.9281 59.4459C38.75 59.6035 40.4678 62.2234 40.3261 64.7619ZM35.4751 67.5583C36.957 67.6411 38.2349 66.3392 38.3292 64.6504C38.4235 62.9617 37.2986 61.5256 35.8166 61.4428C34.3347 61.3601 33.0568 62.662 32.9625 64.3507C32.8682 66.0394 33.9931 67.4755 35.4751 67.5583Z" fill="#EEFEFF"/>
<path d="M48.8284 22.0607C47.6282 20.0092 45.5618 20.5332 44.6434 21.0541C40.8631 23.4966 35.693 27.8655 34.701 28.6348C33.2969 29.7237 34.2582 30.7839 35.2743 30.5838C36.2417 30.3931 43.9349 28.4998 48.6633 25.8639C49.5216 25.3854 49.9394 23.9596 48.8284 22.0607Z" fill="#E58B04"/>
<path fill-rule="evenodd" clip-rule="evenodd" d="M44.1249 20.1985L44.15 20.1843C44.7321 19.8541 45.6764 19.5161 46.7071 19.5957C47.802 19.6802 48.9191 20.2355 49.6915 21.5557C50.9252 23.6643 50.736 25.8533 49.1502 26.7373C46.6952 28.1059 43.5116 29.2625 40.8577 30.095C38.1993 30.9289 35.9974 31.4605 35.4675 31.5649C34.6166 31.7325 33.6252 31.4018 33.1892 30.547C32.6842 29.5567 33.2005 28.5329 34.0882 27.8446C34.2659 27.7067 34.6034 27.4317 35.0599 27.0597C36.9808 25.4943 41.0082 22.2122 44.1007 20.2142L44.1249 20.1985ZM44.6433 21.0541C45.5618 20.5332 47.6281 20.0092 48.8284 22.0607C49.9394 23.9596 49.5216 25.3854 48.6633 25.8639C43.9349 28.4998 36.2417 30.3931 35.2742 30.5838C34.2582 30.7839 33.2969 29.7237 34.701 28.6348C34.8973 28.4825 35.2574 28.1892 35.738 27.7977C37.6852 26.2114 41.6113 23.0131 44.6433 21.0541Z" fill="#B36013"/>
<path fill-rule="evenodd" clip-rule="evenodd" d="M43.8794 21.6554C44.0636 21.4363 44.4025 21.3609 44.6364 21.487C45.5747 21.9928 47.4748 23.5821 47.778 26.0245C47.8084 26.2696 47.593 26.5184 47.2969 26.5804C47.0007 26.6423 46.736 26.4938 46.7056 26.2487C46.4408 24.1154 44.7537 22.7032 43.9693 22.2803C43.7354 22.1542 43.6952 21.8744 43.8794 21.6554Z" fill="#E16002"/>
<path fill-rule="evenodd" clip-rule="evenodd" d="M40.7699 24.1555C40.9582 23.9386 41.2978 23.8681 41.5284 23.998C41.935 24.227 42.5151 24.6672 42.9922 25.2678C43.4694 25.8685 43.8666 26.6591 43.8454 27.5863C43.8396 27.8371 43.5937 28.0661 43.2961 28.0978C42.9984 28.1295 42.7618 27.9519 42.7676 27.7011C42.7836 27.0017 42.4823 26.369 42.0711 25.8515C41.6598 25.3338 41.1618 24.9608 40.8466 24.7832C40.616 24.6534 40.5817 24.3723 40.7699 24.1555Z" fill="#E16002"/>
<path fill-rule="evenodd" clip-rule="evenodd" d="M37.5219 26.4345C37.7115 26.2184 38.0513 26.1495 38.2808 26.2806C38.5855 26.4547 39.0111 26.7855 39.358 27.2366C39.7053 27.6885 39.9949 28.2893 39.9685 29.0003C39.9591 29.2514 39.7103 29.4783 39.4128 29.507C39.1153 29.5356 38.8816 29.3553 38.8909 29.1042C38.909 28.6184 38.7104 28.1763 38.4295 27.8109C38.1481 27.4448 37.8053 27.1838 37.5942 27.0631C37.3647 26.932 37.3323 26.6505 37.5219 26.4345Z" fill="#E16002"/>
<path fill-rule="evenodd" clip-rule="evenodd" d="M44.7614 21.583C44.9274 21.8037 44.8831 22.1172 44.6625 22.2832L35.7539 28.9868C35.5332 29.1529 35.2198 29.1086 35.0537 28.888C34.8877 28.6673 34.932 28.3538 35.1526 28.1878L44.0612 21.4841C44.2818 21.3181 44.5953 21.3624 44.7614 21.583Z" fill="#FFB444"/>
</svg>