<svg width="96" height="96" viewBox="0 0 96 96" fill="none" xmlns="http://www.w3.org/2000/svg">
<path d="M44 73C44 72.4477 44.4477 72 45 72H51C51.5523 72 52 72.4477 52 73V83.645C52 83.8746 51.9182 84.0975 51.7265 84.2239C51.2795 84.5187 50.2112 85 48 85C45.7887 85 44.7205 84.5187 44.2735 84.2239C44.0818 84.0975 44 83.8746 44 83.645V73Z" fill="#884723"/>
<path fill-rule="evenodd" clip-rule="evenodd" d="M45 70H51C52.6568 70 54 71.3431 54 73V83.645C54 84.2982 53.7604 85.2782 52.8276 85.8935C51.9771 86.4545 50.4994 87 48 87C45.5006 87 44.0228 86.4545 43.1723 85.8935C42.2395 85.2782 42 84.2982 42 83.645V73C42 71.3431 43.3431 70 45 70ZM45 72C44.4477 72 44 72.4477 44 73V83.645C44 83.8746 44.0818 84.0975 44.2735 84.2239C44.7205 84.5187 45.7887 85 48 85C50.2112 85 51.2795 84.5187 51.7264 84.2239C51.9182 84.0975 52 83.8746 52 83.645V73C52 72.4477 51.5523 72 51 72H45Z" fill="#602606"/>
<path fill-rule="evenodd" clip-rule="evenodd" d="M45.0312 76.5C45.5835 76.5 46.0312 76.9477 46.0312 77.5V83.4375C46.0312 83.9898 45.5835 84.4375 45.0312 84.4375C44.4789 84.4375 44.0312 83.9898 44.0312 83.4375V77.5C44.0312 76.9477 44.4789 76.5 45.0312 76.5Z" fill="#9C5A36"/>
<path d="M22 73.0034C28.1754 68.3489 42.9064 47.1451 49.5 37.125C58.3772 52.64 71.5322 67.5085 77 73.0034C54.614 83.8638 31.0058 77.5286 22 73.0034Z" fill="#6DB859"/>
<path fill-rule="evenodd" clip-rule="evenodd" d="M49.5623 35.126C50.257 35.1476 50.8907 35.5284 51.2359 36.1318C59.9966 51.443 73.0239 66.1722 78.4177 71.5926C78.8735 72.0507 79.0799 72.7008 78.9718 73.338C78.8637 73.9751 78.4544 74.5207 77.873 74.8028C54.7452 86.0232 30.4546 79.4899 21.102 74.7905C20.484 74.4799 20.0704 73.8722 20.0081 73.1834C19.9459 72.4946 20.2439 71.8225 20.7962 71.4062C22.1422 70.3917 24.0951 68.3506 26.4439 65.556C28.7595 62.8009 31.3587 59.4372 33.9854 55.8868C39.2374 48.7878 44.5473 41.0131 47.8293 36.0256C48.2114 35.4449 48.8675 35.1043 49.5623 35.126ZM22 73.0034C22.6084 73.3091 23.2834 73.623 24.0201 73.9394C33.8771 78.1717 54.7878 82.8338 75.0711 73.8959C75.7148 73.6122 76.3579 73.3149 77 73.0034C76.5576 72.5588 76.0649 72.0528 75.5281 71.4901C69.7064 65.3865 58.7094 52.6069 50.6253 39.0507C50.2434 38.4103 49.868 37.7682 49.5 37.125C49.1153 37.7096 48.7029 38.3323 48.2662 38.9875C41.8172 48.662 30.0523 65.4351 23.6427 71.5781C23.0458 72.1501 22.4954 72.63 22 73.0034Z" fill="#3B8327"/>
<path fill-rule="evenodd" clip-rule="evenodd" d="M46.0673 78.8829C55.5331 79.4321 66.4035 78.1442 77 73.0034C71.5322 67.5085 58.3772 52.64 49.5 37.125C48.3288 38.9048 46.9009 41.0374 45.3099 43.3675C53.7973 56.493 64.2722 68.2522 69 73.0034C61.285 76.7463 53.4248 78.4468 46.0673 78.8829Z" fill="#58A245"/>
<path d="M65.0445 71.7068C65.0445 72.2558 64.5734 72.7009 63.9923 72.7009C63.4112 72.7009 62.94 72.2558 62.94 71.7068C62.94 71.1577 63.4112 70.7126 63.9923 70.7126C64.5734 70.7126 65.0445 71.1577 65.0445 71.7068Z" fill="#458634"/>
<path d="M62.2913 69.3243C62.2913 69.6585 62.0045 69.9294 61.6508 69.9294C61.2971 69.9294 61.0104 69.6585 61.0104 69.3243C61.0104 68.9901 61.2971 68.7192 61.6508 68.7192C62.0045 68.7192 62.2913 68.9901 62.2913 69.3243Z" fill="#458634"/>
<path d="M53.9916 71.3177C53.9916 71.6519 53.7048 71.9228 53.3511 71.9228C52.9974 71.9228 52.7107 71.6519 52.7107 71.3177C52.7107 70.9836 52.9974 70.7126 53.3511 70.7126C53.7048 70.7126 53.9916 70.9836 53.9916 71.3177Z" fill="#458634"/>
<path d="M49.2809 76.0233C49.2809 76.3575 48.9942 76.6284 48.6404 76.6284C48.2867 76.6284 48 76.3575 48 76.0233C48 75.6891 48.2867 75.4182 48.6404 75.4182C48.9942 75.4182 49.2809 75.6891 49.2809 76.0233Z" fill="#458634"/>
<path d="M59.0807 71.7068C59.0807 72.2558 58.6096 72.7009 58.0284 72.7009C57.4473 72.7009 56.9762 72.2558 56.9762 71.7068C56.9762 71.1577 57.4473 70.7126 58.0284 70.7126C58.6096 70.7126 59.0807 71.1577 59.0807 71.7068Z" fill="#458634"/>
<path d="M55.4557 76.0232C55.4557 76.5722 54.9846 77.0173 54.4034 77.0173C53.8223 77.0173 53.3512 76.5722 53.3512 76.0232C53.3512 75.4741 53.8223 75.0291 54.4034 75.0291C54.9846 75.0291 55.4557 75.4741 55.4557 76.0232Z" fill="#458634"/>
<path d="M70.086 68.7193C70.086 69.0835 69.7735 69.3787 69.388 69.3787C69.0026 69.3787 68.69 69.0835 68.69 68.7193C68.69 68.3551 69.0026 68.0598 69.388 68.0598C69.7735 68.0598 70.086 68.3551 70.086 68.7193Z" fill="#458634"/>
<path d="M67.1798 66.4354C67.1798 67.267 66.4662 67.9412 65.586 67.9412C64.7058 67.9412 63.9923 67.267 63.9923 66.4354C63.9923 65.6038 64.7058 64.9297 65.586 64.9297C66.4662 64.9297 67.1798 65.6038 67.1798 66.4354Z" fill="#458634"/>
<path d="M71.4298 72.025C71.4298 72.8566 70.7162 73.5308 69.836 73.5308C68.9558 73.5308 68.2423 72.8566 68.2423 72.025C68.2423 71.1934 68.9558 70.5193 69.836 70.5193C70.7162 70.5193 71.4298 71.1934 71.4298 72.025Z" fill="#458634"/>
<path d="M62.6041 74.5175C62.6041 75.3491 61.8906 76.0232 61.0104 76.0232C60.1302 76.0232 59.4166 75.3491 59.4166 74.5175C59.4166 73.6859 60.1302 73.0117 61.0104 73.0117C61.8906 73.0117 62.6041 73.6859 62.6041 74.5175Z" fill="#458634"/>
<path fill-rule="evenodd" clip-rule="evenodd" d="M39.0823 55.9857C39.5735 56.2383 39.7669 56.8412 39.5143 57.3323C35.8522 64.4531 30.212 70.9523 27.8321 73.3321C27.4416 73.7226 26.8084 73.7226 26.4179 73.3321C26.0274 72.9416 26.0274 72.3084 26.4179 71.9179C28.7047 69.6311 34.1978 63.2969 37.7357 56.4177C37.9883 55.9265 38.5912 55.7331 39.0823 55.9857Z" fill="#7BD264"/>
<path d="M26.375 55.5064C31.2873 51.8245 43.0051 35.0513 48.25 27.125C55.3114 39.398 65.7756 51.1597 70.125 55.5064C52.318 64.0975 33.5387 59.086 26.375 55.5064Z" fill="#72CC52"/>
<path fill-rule="evenodd" clip-rule="evenodd" d="M48.3124 25.126C49.0054 25.1476 49.6377 25.5266 49.9835 26.1276C56.9276 38.1967 67.2635 49.8192 71.5387 54.0917C71.9971 54.5498 72.2051 55.2015 72.0969 55.8404C71.9887 56.4793 71.5776 57.0261 70.994 57.3077C52.4484 66.2552 32.9905 61.0479 25.481 57.2955C24.8607 56.9855 24.4453 56.3765 24.383 55.686C24.3208 54.9954 24.6206 54.3219 25.1754 53.906C26.2054 53.1341 27.7328 51.5517 29.6002 49.3421C31.4345 47.1718 33.4964 44.5185 35.5831 41.7136C39.7552 36.1056 43.9745 29.962 46.582 26.0213C46.9646 25.4431 47.6194 25.1043 48.3124 25.126ZM26.375 55.5064C26.9739 55.8057 27.654 56.115 28.4079 56.4255C36.3448 59.6942 52.4641 63.0984 68.1839 56.3883C68.8318 56.1118 69.479 55.818 70.125 55.5064C69.6912 55.0729 69.1966 54.5656 68.6506 53.9915C64.0074 49.1085 55.6482 39.3867 49.3801 29.0383C48.9951 28.4026 48.6179 27.7645 48.25 27.125C47.8702 27.6988 47.4566 28.319 47.0141 28.9773C41.9427 36.5209 33.0775 49.0608 28.0016 54.0685C27.4024 54.6596 26.8561 55.1458 26.375 55.5064Z" fill="#3B8327"/>
<path fill-rule="evenodd" clip-rule="evenodd" d="M36.423 58.8934C45.4718 60.901 58.0229 61.3451 70.125 55.5064C65.7756 51.1597 55.3114 39.398 48.25 27.125C47.4479 28.3371 46.4945 29.7561 45.4372 31.3035C52.1603 41.5893 60.3932 50.777 64.1249 54.5064C54.5146 59.143 44.621 59.8175 36.423 58.8934Z" fill="#5DA744"/>
<path d="M59.2161 53.8516C59.2161 54.2995 58.8317 54.6627 58.3576 54.6627C57.8834 54.6627 57.4991 54.2995 57.4991 53.8516C57.4991 53.4036 57.8834 53.0405 58.3576 53.0405C58.8317 53.0405 59.2161 53.4036 59.2161 53.8516Z" fill="#4A9736"/>
<path d="M56.9697 51.9078C56.9697 52.1804 56.7358 52.4015 56.4472 52.4015C56.1586 52.4015 55.9247 52.1804 55.9247 51.9078C55.9247 51.6351 56.1586 51.4141 56.4472 51.4141C56.7358 51.4141 56.9697 51.6351 56.9697 51.9078Z" fill="#4A9736"/>
<path d="M50.1982 53.5342C50.1982 53.8068 49.9643 54.0278 49.6757 54.0278C49.3871 54.0278 49.1532 53.8068 49.1532 53.5342C49.1532 53.2615 49.3871 53.0405 49.6757 53.0405C49.9643 53.0405 50.1982 53.2615 50.1982 53.5342Z" fill="#4A9736"/>
<path d="M46.3549 57.3733C46.3549 57.646 46.1209 57.867 45.8323 57.867C45.5437 57.867 45.3098 57.646 45.3098 57.3733C45.3098 57.1007 45.5437 56.8796 45.8323 56.8796C46.1209 56.8796 46.3549 57.1007 46.3549 57.3733Z" fill="#4A9736"/>
<path d="M54.3503 53.8516C54.3503 54.2995 53.9659 54.6627 53.4918 54.6627C53.0176 54.6627 52.6333 54.2995 52.6333 53.8516C52.6333 53.4036 53.0176 53.0405 53.4918 53.0405C53.9659 53.0405 54.3503 53.4036 54.3503 53.8516Z" fill="#4A9736"/>
<path d="M51.3927 57.3732C51.3927 57.8212 51.0084 58.1843 50.5342 58.1843C50.0601 58.1843 49.6757 57.8212 49.6757 57.3732C49.6757 56.9253 50.0601 56.5621 50.5342 56.5621C51.0084 56.5621 51.3927 56.9253 51.3927 57.3732Z" fill="#4A9736"/>
<path d="M63.3293 51.4141C63.3293 51.7113 63.0743 51.9522 62.7598 51.9522C62.4453 51.9522 62.1904 51.7113 62.1904 51.4141C62.1904 51.117 62.4453 50.8761 62.7598 50.8761C63.0743 50.8761 63.3293 51.117 63.3293 51.4141Z" fill="#4A9736"/>
<path d="M60.9582 49.5508C60.9582 50.2293 60.376 50.7793 59.6579 50.7793C58.9397 50.7793 58.3576 50.2293 58.3576 49.5508C58.3576 48.8723 58.9397 48.3223 59.6579 48.3223C60.376 48.3223 60.9582 48.8723 60.9582 49.5508Z" fill="#4A9736"/>
<path d="M64.4257 54.1112C64.4257 54.7897 63.8435 55.3397 63.1253 55.3397C62.4072 55.3397 61.825 54.7897 61.825 54.1112C61.825 53.4327 62.4072 52.8827 63.1253 52.8827C63.8435 52.8827 64.4257 53.4327 64.4257 54.1112Z" fill="#4A9736"/>
<path d="M57.225 56.1447C57.225 56.8232 56.6428 57.3732 55.9247 57.3732C55.2065 57.3732 54.6244 56.8232 54.6244 56.1447C54.6244 55.4663 55.2065 54.9162 55.9247 54.9162C56.6428 54.9162 57.225 55.4663 57.225 56.1447Z" fill="#4A9736"/>
<path fill-rule="evenodd" clip-rule="evenodd" d="M43.6947 38.558C44.1858 38.8106 44.3792 39.4135 44.1266 39.9046C40.4645 47.0253 34.8243 53.5245 32.4444 55.9044C32.0539 56.2949 31.4207 56.2949 31.0302 55.9044C30.6397 55.5138 30.6397 54.8807 31.0302 54.4902C33.317 52.2033 38.8101 45.8692 42.348 38.9899C42.6006 38.4988 43.2035 38.3054 43.6947 38.558Z" fill="#8BF26F"/>
<path d="M30.75 36.8125C34.75 33.8125 44.2917 20.1458 48.5625 13.6875C54.3125 23.6875 62.8333 33.2708 66.375 36.8125C51.875 43.8125 36.5833 39.7292 30.75 36.8125Z" fill="#82E360"/>
<path fill-rule="evenodd" clip-rule="evenodd" d="M48.6249 11.6885C49.3181 11.7101 49.9506 12.0893 50.2963 12.6906C55.9291 22.4867 64.3217 31.9308 67.7892 35.3983C68.2473 35.8563 68.4551 36.5079 68.3469 37.1466C68.2387 37.7853 67.8279 38.332 67.2445 38.6136C52.0055 45.9703 36.0347 41.6909 29.8556 38.6014C29.2356 38.2914 28.8203 37.6825 28.7581 36.9921C28.6958 36.3018 28.9955 35.6284 29.55 35.2125C30.3519 34.6111 31.5722 33.3508 33.0922 31.5513C34.5789 29.791 36.2529 27.6358 37.9497 25.3536C41.3419 20.7909 44.7737 15.7909 46.8943 12.5843C47.2768 12.0058 47.9317 11.6668 48.6249 11.6885ZM30.75 36.8125C31.3373 37.1062 32.0205 37.4116 32.7891 37.7164C39.3133 40.3037 51.9919 42.8423 64.4269 37.6858C65.0773 37.4161 65.7269 37.1254 66.375 36.8125C65.9519 36.3894 65.4577 35.8801 64.9057 35.2941C61.132 31.2883 54.6547 23.7009 49.6956 15.5962C49.308 14.9626 48.9296 14.3259 48.5625 13.6875C48.1885 14.253 47.7741 14.8739 47.3265 15.538C43.2575 21.5756 36.4478 31.1898 32.3535 35.361C31.7554 35.9704 31.2152 36.4636 30.75 36.8125Z" fill="#3B8327"/>
<path fill-rule="evenodd" clip-rule="evenodd" d="M35.7892 38.754C43.1937 40.9807 55.0268 42.2909 66.375 36.8125C62.8333 33.2708 54.3125 23.6875 48.5625 13.6875C48.0424 14.474 47.4442 15.3673 46.7873 16.3353C52.3264 24.9459 59.2674 32.7049 62.375 35.8125C52.8971 40.388 43.081 40.2282 35.7892 38.754Z" fill="#70CA4F"/>
<path d="M58.8855 35.4199C58.8855 35.7531 58.5997 36.0231 58.2471 36.0231C57.8945 36.0231 57.6086 35.7531 57.6086 35.4199C57.6086 35.0868 57.8945 34.8167 58.2471 34.8167C58.5997 34.8167 58.8855 35.0868 58.8855 35.4199Z" fill="#5CA848"/>
<path d="M57.215 33.9744C57.215 34.1771 57.041 34.3415 56.8264 34.3415C56.6118 34.3415 56.4378 34.1771 56.4378 33.9744C56.4378 33.7716 56.6118 33.6072 56.8264 33.6072C57.041 33.6072 57.215 33.7716 57.215 33.9744Z" fill="#5CA848"/>
<path d="M52.1792 35.1839C52.1792 35.3866 52.0052 35.551 51.7906 35.551C51.5759 35.551 51.402 35.3866 51.402 35.1839C51.402 34.9811 51.5759 34.8167 51.7906 34.8167C52.0052 34.8167 52.1792 34.9811 52.1792 35.1839Z" fill="#5CA848"/>
<path d="M49.3209 38.039C49.3209 38.2417 49.147 38.4061 48.9323 38.4061C48.7177 38.4061 48.5437 38.2417 48.5437 38.039C48.5437 37.8362 48.7177 37.6718 48.9323 37.6718C49.147 37.6718 49.3209 37.8362 49.3209 38.039Z" fill="#5CA848"/>
<path d="M55.267 35.4199C55.267 35.7531 54.9811 36.0231 54.6285 36.0231C54.2759 36.0231 53.9901 35.7531 53.9901 35.4199C53.9901 35.0868 54.2759 34.8167 54.6285 34.8167C54.9811 34.8167 55.267 35.0868 55.267 35.4199Z" fill="#5CA848"/>
<path d="M53.0675 38.0389C53.0675 38.372 52.7816 38.6421 52.429 38.6421C52.0764 38.6421 51.7906 38.372 51.7906 38.0389C51.7906 37.7058 52.0764 37.4357 52.429 37.4357C52.7816 37.4357 53.0675 37.7058 53.0675 38.0389Z" fill="#5CA848"/>
<path d="M61.9445 33.6072C61.9445 33.8282 61.7549 34.0074 61.521 34.0074C61.2871 34.0074 61.0974 33.8282 61.0974 33.6072C61.0974 33.3863 61.2871 33.2071 61.521 33.2071C61.7549 33.2071 61.9445 33.3863 61.9445 33.6072Z" fill="#5CA848"/>
<path d="M60.1811 32.2215C60.1811 32.7261 59.7481 33.1351 59.2141 33.1351C58.68 33.1351 58.2471 32.7261 58.2471 32.2215C58.2471 31.717 58.68 31.3079 59.2141 31.3079C59.7481 31.3079 60.1811 31.717 60.1811 32.2215Z" fill="#5CA848"/>
<path d="M62.7598 35.613C62.7598 36.1176 62.3268 36.5266 61.7928 36.5266C61.2587 36.5266 60.8258 36.1176 60.8258 35.613C60.8258 35.1084 61.2587 34.6994 61.7928 34.6994C62.3268 34.6994 62.7598 35.1084 62.7598 35.613Z" fill="#5CA848"/>
<path d="M57.4048 37.1253C57.4048 37.6299 56.9719 38.0389 56.4378 38.0389C55.9037 38.0389 55.4708 37.6299 55.4708 37.1253C55.4708 36.6207 55.9037 36.2117 56.4378 36.2117C56.9719 36.2117 57.4048 36.6207 57.4048 37.1253Z" fill="#5CA848"/>
<path fill-rule="evenodd" clip-rule="evenodd" d="M48.0106 18.8077C48.5017 19.0603 48.6951 19.6632 48.4425 20.1544C44.7804 27.2751 39.1402 33.7743 36.7603 36.1541C36.3698 36.5447 35.7366 36.5447 35.3461 36.1541C34.9556 35.7636 34.9556 35.1304 35.3461 34.7399C37.6329 32.4531 43.126 26.1189 46.6639 19.2397C46.9165 18.7485 47.5194 18.5551 48.0106 18.8077Z" fill="#C4FFB0"/>
<path d="M60.1611 38.6421C60.1611 40.4769 58.6737 41.9644 56.8389 41.9644C55.004 41.9644 53.5166 40.4769 53.5166 38.6421C53.5166 36.8073 55.004 35.3198 56.8389 35.3198C58.6737 35.3198 60.1611 36.8073 60.1611 38.6421Z" fill="#ED3333"/>
<path fill-rule="evenodd" clip-rule="evenodd" d="M62.1611 38.6421C62.1611 41.5815 59.7783 43.9644 56.8389 43.9644C53.8995 43.9644 51.5166 41.5815 51.5166 38.6421C51.5166 35.7027 53.8995 33.3198 56.8389 33.3198C59.7783 33.3198 62.1611 35.7027 62.1611 38.6421ZM56.8389 41.9644C58.6737 41.9644 60.1611 40.4769 60.1611 38.6421C60.1611 36.8073 58.6737 35.3198 56.8389 35.3198C55.004 35.3198 53.5166 36.8073 53.5166 38.6421C53.5166 40.4769 55.004 41.9644 56.8389 41.9644Z" fill="#9D0C0C"/>
<path d="M42.3359 31.7549C42.3359 33.1755 41.1843 34.3271 39.7637 34.3271C38.343 34.3271 37.1914 33.1755 37.1914 31.7549C37.1914 30.3343 38.343 29.1826 39.7637 29.1826C41.1843 29.1826 42.3359 30.3343 42.3359 31.7549Z" fill="#ED3333"/>
<path fill-rule="evenodd" clip-rule="evenodd" d="M44.3359 31.7549C44.3359 34.2801 42.2889 36.3271 39.7637 36.3271C37.2385 36.3271 35.1914 34.2801 35.1914 31.7549C35.1914 29.2297 37.2385 27.1826 39.7637 27.1826C42.2889 27.1826 44.3359 29.2297 44.3359 31.7549ZM39.7637 34.3271C41.1843 34.3271 42.3359 33.1755 42.3359 31.7549C42.3359 30.3343 41.1843 29.1826 39.7637 29.1826C38.343 29.1826 37.1914 30.3343 37.1914 31.7549C37.1914 33.1755 38.343 34.3271 39.7637 34.3271Z" fill="#9D0C0C"/>
<path d="M40.5137 48.3223C40.5137 50.1571 39.0262 51.6445 37.1914 51.6445C35.3566 51.6445 33.8691 50.1571 33.8691 48.3223C33.8691 46.4874 35.3566 45 37.1914 45C39.0262 45 40.5137 46.4874 40.5137 48.3223Z" fill="#ED3333"/>
<path fill-rule="evenodd" clip-rule="evenodd" d="M42.5137 48.3223C42.5137 51.2617 40.1308 53.6445 37.1914 53.6445C34.252 53.6445 31.8691 51.2617 31.8691 48.3223C31.8691 45.3829 34.252 43 37.1914 43C40.1308 43 42.5137 45.3829 42.5137 48.3223ZM37.1914 51.6445C39.0262 51.6445 40.5137 50.1571 40.5137 48.3223C40.5137 46.4874 39.0262 45 37.1914 45C35.3566 45 33.8691 46.4874 33.8691 48.3223C33.8691 50.1571 35.3566 51.6445 37.1914 51.6445Z" fill="#9D0C0C"/>
<path d="M66.4795 58.0625C66.4795 60.2905 64.6733 62.0967 62.4453 62.0967C60.2173 62.0967 58.4111 60.2905 58.4111 58.0625C58.4111 55.8345 60.2173 54.0283 62.4453 54.0283C64.6733 54.0283 66.4795 55.8345 66.4795 58.0625Z" fill="#ED3333"/>
<path fill-rule="evenodd" clip-rule="evenodd" d="M68.4795 58.0625C68.4795 61.3951 65.7779 64.0967 62.4453 64.0967C59.1127 64.0967 56.4111 61.3951 56.4111 58.0625C56.4111 54.7299 59.1127 52.0283 62.4453 52.0283C65.7779 52.0283 68.4795 54.7299 68.4795 58.0625ZM62.4453 62.0967C64.6733 62.0967 66.4795 60.2905 66.4795 58.0625C66.4795 55.8345 64.6733 54.0283 62.4453 54.0283C60.2173 54.0283 58.4111 55.8345 58.4111 58.0625C58.4111 60.2905 60.2173 62.0967 62.4453 62.0967Z" fill="#9D0C0C"/>
<path d="M54.0381 72.6758C54.0381 74.5106 52.5507 75.998 50.7158 75.998C48.881 75.998 47.3936 74.5106 47.3936 72.6758C47.3936 70.8409 48.881 69.3535 50.7158 69.3535C52.5507 69.3535 54.0381 70.8409 54.0381 72.6758Z" fill="#ED3333"/>
<path fill-rule="evenodd" clip-rule="evenodd" d="M56.0381 72.6758C56.0381 75.6152 53.6552 77.998 50.7158 77.998C47.7764 77.998 45.3936 75.6152 45.3936 72.6758C45.3936 69.7364 47.7764 67.3535 50.7158 67.3535C53.6552 67.3535 56.0381 69.7364 56.0381 72.6758ZM50.7158 75.998C52.5507 75.998 54.0381 74.5106 54.0381 72.6758C54.0381 70.8409 52.5507 69.3535 50.7158 69.3535C48.881 69.3535 47.3936 70.8409 47.3936 72.6758C47.3936 74.5106 48.881 75.998 50.7158 75.998Z" fill="#9D0C0C"/>
<path d="M33.0195 67.0312C33.0195 68.8661 31.5321 70.3535 29.6973 70.3535C27.8624 70.3535 26.375 68.8661 26.375 67.0312C26.375 65.1964 27.8624 63.709 29.6973 63.709C31.5321 63.709 33.0195 65.1964 33.0195 67.0312Z" fill="#ED3333"/>
<path fill-rule="evenodd" clip-rule="evenodd" d="M35.0195 67.0312C35.0195 69.9707 32.6367 72.3535 29.6973 72.3535C26.7579 72.3535 24.375 69.9707 24.375 67.0312C24.375 64.0918 26.7579 61.709 29.6973 61.709C32.6367 61.709 35.0195 64.0918 35.0195 67.0312ZM29.6973 70.3535C31.5321 70.3535 33.0195 68.8661 33.0195 67.0312C33.0195 65.1964 31.5321 63.709 29.6973 63.709C27.8624 63.709 26.375 65.1964 26.375 67.0312C26.375 68.8661 27.8624 70.3535 29.6973 70.3535Z" fill="#9D0C0C"/>
<path d="M55.0889 22.8828C55.0889 24.1934 54.0264 25.2559 52.7158 25.2559C51.4052 25.2559 50.3428 24.1934 50.3428 22.8828C50.3428 21.5722 51.4052 20.5098 52.7158 20.5098C54.0264 20.5098 55.0889 21.5722 55.0889 22.8828Z" fill="#ED3333"/>
<path fill-rule="evenodd" clip-rule="evenodd" d="M57.0889 22.8828C57.0889 25.298 55.131 27.2559 52.7158 27.2559C50.3007 27.2559 48.3428 25.298 48.3428 22.8828C48.3428 20.4676 50.3007 18.5098 52.7158 18.5098C55.131 18.5098 57.0889 20.4676 57.0889 22.8828ZM52.7158 25.2559C54.0264 25.2559 55.0889 24.1934 55.0889 22.8828C55.0889 21.5722 54.0264 20.5098 52.7158 20.5098C51.4052 20.5098 50.3428 21.5722 50.3428 22.8828C50.3428 24.1934 51.4052 25.2559 52.7158 25.2559Z" fill="#9D0C0C"/>
<path d="M56.8389 36.2632C56.8389 36.8918 56.3293 37.4014 55.7007 37.4014C55.0721 37.4014 54.5625 36.8918 54.5625 36.2632C54.5625 35.6346 55.0721 35.125 55.7007 35.125C56.3293 35.125 56.8389 35.6346 56.8389 36.2632Z" fill="#FF8989"/>
<path d="M39.7637 30.2007C39.7637 30.8293 39.2541 31.3389 38.6255 31.3389C37.9969 31.3389 37.4873 30.8293 37.4873 30.2007C37.4873 29.5721 37.9969 29.0625 38.6255 29.0625C39.2541 29.0625 39.7637 29.5721 39.7637 30.2007Z" fill="#FF8989"/>
<path d="M53.1387 21.1382C53.1387 21.7668 52.6291 22.2764 52.0005 22.2764C51.3719 22.2764 50.8623 21.7668 50.8623 21.1382C50.8623 20.5096 51.3719 20 52.0005 20C52.6291 20 53.1387 20.5096 53.1387 21.1382Z" fill="#FF8989"/>
<path d="M37.1914 46.1841C37.1914 46.8127 36.6818 47.3223 36.0532 47.3223C35.4246 47.3223 34.915 46.8127 34.915 46.1841C34.915 45.5555 35.4246 45.0459 36.0532 45.0459C36.6818 45.0459 37.1914 45.5555 37.1914 46.1841Z" fill="#FF8989"/>
<path d="M62.4453 55.5938C62.4453 56.4049 61.7877 57.0625 60.9766 57.0625C60.1654 57.0625 59.5078 56.4049 59.5078 55.5938C59.5078 54.7826 60.1654 54.125 60.9766 54.125C61.7877 54.125 62.4453 54.7826 62.4453 55.5938Z" fill="#FF8989"/>
<path d="M50.7158 72.1118C50.7158 72.7404 50.2062 73.25 49.5776 73.25C48.949 73.25 48.4395 72.7404 48.4395 72.1118C48.4395 71.4832 48.949 70.9736 49.5776 70.9736C50.2062 70.9736 50.7158 71.4832 50.7158 72.1118Z" fill="#FF8989"/>
<path d="M29.2783 64.2368C29.2783 64.8654 28.7687 65.375 28.1401 65.375C27.5115 65.375 27.002 64.8654 27.002 64.2368C27.002 63.6082 27.5115 63.0986 28.1401 63.0986C28.7687 63.0986 29.2783 63.6082 29.2783 64.2368Z" fill="#FF8989"/>
<path d="M44.0035 9.57667L46.9887 8.98825L47.8913 7.48219L48.7939 5.97613L50.5669 9.00734L53.5456 9.62758L51.1472 12.0322L51.7275 15.057L48.7536 13.5303L45.7637 15.0252L46.3762 12.0067L44.0035 9.57667Z" fill="#FFE24B"/>
<path fill-rule="evenodd" clip-rule="evenodd" d="M46.9887 8.98826L48.7939 5.97614L50.5669 9.00735L53.5456 9.62759L51.1472 12.0322L51.7274 15.057L48.7536 13.5303L45.7636 15.0252L46.3762 12.0067L44.0035 9.57668L46.9887 8.98826ZM45.2909 12.3266L43.288 10.2753C43.0315 10.0126 42.9396 9.63046 43.0486 9.27986C43.1576 8.92925 43.4499 8.66656 43.8101 8.59556L46.3593 8.09307L47.9362 5.46207C48.1178 5.15899 48.4459 4.97427 48.7992 4.97616C49.1526 4.97804 49.4787 5.16625 49.6571 5.47125L51.2058 8.11892L53.7495 8.64859C54.1089 8.72343 54.3984 8.98923 54.5037 9.34097C54.6089 9.69271 54.5129 10.0738 54.2536 10.3338L52.229 12.3636L52.7095 14.8686C52.7816 15.2442 52.6331 15.628 52.3271 15.8573C52.021 16.0866 51.611 16.1213 51.2707 15.9466L48.7476 14.6513L46.2108 15.9196C45.8688 16.0907 45.4591 16.0516 45.1555 15.8191C44.8519 15.5865 44.7076 15.2011 44.7836 14.8263L45.2909 12.3266Z" fill="#D97D11"/>
</svg>
